# xmcd
#
# Track frame offsets: 
#        150
#        20274
#        39911
#        60000
#        80251
#        98871
#        115165
#        130723
#        154355
#        172394
#        191338
#        204627
#        222204
#        244234
#        263857
#        285850
#        306252
#        333064
#
# Disc length: 4740 seconds
#
# Revision: 2
# Processed by: cddbd v1.5.2PL0 Copyright (c) Steve Scherf et al.
# Submitted via: ExactAudioCopy v1.3
#
DISCID=ee128212
DTITLE=Various Artist - Philadelphia International Records: The 40th 
DTITLE=Anniversary Box Set [CD6]
DYEAR=2012
DGENRE=Soul
TTITLE0=Teddy Pendergrass - The More I Get, The More I Want
TTITLE1=Anthony White - Stop And Think It Over
TTITLE2=The Jacksons - Living Together
TTITLE3=Jean Carn - (No, No) You Can't Come Back Now
TTITLE4=Teddy Pendergrass - You Can't Hide From Yourself
TTITLE5=Jerry Butler - (I'm Just Thinking About) Cooling Out
TTITLE6=Billy Paul - Only The Strong Survive
TTITLE7=M.F.S.B. - Use Ta Be My Guy
TTITLE8=Teddy Pendergrass - I Don't Love You Anymore
TTITLE9=The O'Jays - To Prove I Love You
TTITLE10=Bunny Sigler - Things Are Gonna Get Better
TTITLE11=Lou Rawls - Not The Staying Kind
TTITLE12=Dexter Wansel - Holdin' On
TTITLE13=Archie Bell and The Drells - Don't Let Love Get You Down
TTITLE14=The Philadelphia International All Stars - Let's Clean Up The
TTITLE14=Ghetto
TTITLE15=The Jones Girls - You're Gonna Make Me Love Somebody Else
TTITLE16=Lou Rawls - What's The Matter With The World?
TTITLE17=Teddy Pendergrass - When Somebody Loves You Back
EXTD=
EXTT0=
EXTT1=
EXTT2=
EXTT3=
EXTT4=
EXTT5=
EXTT6=
EXTT7=
EXTT8=
EXTT9=
EXTT10=
EXTT11=
EXTT12=
EXTT13=
EXTT14=
EXTT15=
EXTT16=
EXTT17=
PLAYORDER=
